<svg xmlns="http://www.w3.org/2000/svg" xmlns:xlink="http://www.w3.org/1999/xlink" version="1.0" width="100px"
     height="80px" viewBox="0 0 90 60" preserveAspectRatio="xMidYMid meet" color-interpolation-filters="sRGB"
     class="el-tooltip" style="margin: auto;">

    <g fill="#2bbdc4" class="icon-text-wrapper icon-svg-group iconsvg">

        <g mask="url(#ba6d8b65-5859-46ef-bcab-ba551326c138)">
            <g fill-rule="" class="tp-name iconsvg-namesvg" transform="translate(0,0)">
                <g>
                    <path d="M21.33 0L7.11 0Q5.94 0 5.22-0.72Q4.50-1.44 4.50-2.61L4.50-2.61L4.50-30.91Q4.50-32.98 6.61-32.98L6.61-32.98Q8.69-32.98 8.69-30.91L8.69-30.91L8.69-3.55L21.33-3.55Q23.09-3.55 23.09-1.80L23.09-1.80Q23.09 0 21.33 0L21.33 0ZM34.16 0.58L34.16 0.58Q31.00 0.58 29.02-1.21L29.02-1.21Q27-3.10 27-6.34L27-6.34Q27-10.30 30.60-12.46L30.60-12.46Q34.16-14.58 42.03-15.48L42.03-15.48Q42.03-21.64 36.99-21.64L36.99-21.64Q34.20-21.64 31.00-19.89L31.00-19.89Q29.61-19.04 28.80-20.52L28.80-20.52Q28.39-21.24 28.44-21.69Q28.48-22.14 29.16-22.54L29.16-22.54Q33.57-25.06 37.66-25.06L37.66-25.06Q41.98-25.06 44.14-22.32L44.14-22.32Q46.13-19.75 46.13-15.03L46.13-15.03L46.13-1.67Q46.13 0 44.37 0L44.37 0Q42.75 0 42.57-1.53L42.57-1.53L42.39-2.92L42.25-2.92Q38.02 0.58 34.16 0.58ZM35.33-2.70L35.33-2.70Q37.03-2.70 38.70-3.51L38.70-3.51Q40.14-4.27 42.03-5.94L42.03-5.94L42.03-12.78Q36.05-12.06 33.44-10.53L33.44-10.53Q31.00-9.09 31.00-6.61L31.00-6.61Q31.00-4.63 32.27-3.60L32.27-3.60Q33.39-2.70 35.33-2.70ZM68.17 0L52.47 0Q51.34 0 51.34-1.13L51.34-1.13L51.34-1.26Q51.34-2.21 51.88-2.97L51.88-2.97L64.22-21.11L54.40-21.11Q52.74-21.11 52.74-22.77Q52.74-24.43 54.40-24.43L54.40-24.43L68.27-24.43Q69.39-24.43 69.39-23.31L69.39-23.31L69.39-23.18Q69.39-22.23 68.85-21.46L68.85-21.46L56.52-3.33L68.17-3.33Q69.84-3.33 69.84-1.67Q69.84 0 68.17 0L68.17 0ZM75.64 10.53L75.64 10.53Q74.83 10.53 74.07 10.39L74.07 10.39Q72.81 10.04 73.13 8.55L73.13 8.55Q73.53 6.75 75.28 7.15L75.28 7.15Q75.38 7.15 75.42 7.15L75.42 7.15Q79.24 7.15 80.95 1.89L80.95 1.89L81.49 0.04L72.67-22.00Q71.68-24.43 74.29-24.43L74.29-24.43Q75.96-24.43 76.54-22.90L76.54-22.90L80.95-10.84Q81.04-10.53 81.27-9.95L81.27-9.95Q82.62-5.89 83.29-4.00L83.29-4.00L83.52-4.00Q83.79-4.95 84.38-6.88L84.38-6.88Q85.18-9.58 85.59-10.84L85.59-10.84L89.46-22.90Q89.95-24.43 91.53-24.43L91.53-24.43Q93.96-24.43 93.15-22.18L93.15-22.18L89.32-11.21L84.73 2.02Q83.29 6.03 81.36 8.10L81.36 8.10Q79.02 10.53 75.64 10.53Z"
                          transform="translate(-4.5, 32.985)"/>
                </g> <!----> <!----> <!----> <!----> <!----> <!---->
                <g fill="#2bbdc4" transform="translate(91.85250091552734,0)"/>
            </g>
            <g fill-rule="" hollow-target="t-name" class="tp-slogan iconsvg-slogansvg" fill="#271356"
               transform="translate(0,50.5099983215332)">
                <rect x="0" height="1" y="3.7899999618530273" width="27.011250495910645"/>
                <rect height="1" y="3.7899999618530273" width="27.011250495910645" x="61.8412504196167"/>
                <g transform="translate(30.011250495910645,0)">
                    <path d="M0.89-8.58L2.06-8.58L2.06-1.03L6.42-1.03L6.42 0L0.89 0L0.89-8.58ZM13.22 0L12.38-2.48L8.91-2.48L8.02 0L6.84 0L10.08-8.58L11.39-8.58L14.48 0L13.22 0ZM10.64-7.31L9.28-3.52L11.95-3.52L10.69-7.31L10.64-7.31ZM16.36-1.03L21.66-1.03L21.66 0L14.91 0L14.91-0.94L20.16-7.59L15.28-7.59L15.28-8.58L21.66-8.58L21.66-7.59L16.36-1.03ZM29.72-8.58L26.48-3.47L26.48 0L25.31 0L25.31-3.47L22.08-8.58L23.44-8.58L25.88-4.45L28.36-8.58L29.72-8.58Z"
                          transform="translate(-0.890625, 8.578125)"/>
                </g>
            </g>
        </g>
    </g>
    <mask id="ba6d8b65-5859-46ef-bcab-ba551326c138">
        <g fill-rule="" class="tp-name iconsvg-namesvg" transform="translate(0,0)" fill="white">
            <g>
                <path d="M21.33 0L7.11 0Q5.94 0 5.22-0.72Q4.50-1.44 4.50-2.61L4.50-2.61L4.50-30.91Q4.50-32.98 6.61-32.98L6.61-32.98Q8.69-32.98 8.69-30.91L8.69-30.91L8.69-3.55L21.33-3.55Q23.09-3.55 23.09-1.80L23.09-1.80Q23.09 0 21.33 0L21.33 0ZM34.16 0.58L34.16 0.58Q31.00 0.58 29.02-1.21L29.02-1.21Q27-3.10 27-6.34L27-6.34Q27-10.30 30.60-12.46L30.60-12.46Q34.16-14.58 42.03-15.48L42.03-15.48Q42.03-21.64 36.99-21.64L36.99-21.64Q34.20-21.64 31.00-19.89L31.00-19.89Q29.61-19.04 28.80-20.52L28.80-20.52Q28.39-21.24 28.44-21.69Q28.48-22.14 29.16-22.54L29.16-22.54Q33.57-25.06 37.66-25.06L37.66-25.06Q41.98-25.06 44.14-22.32L44.14-22.32Q46.13-19.75 46.13-15.03L46.13-15.03L46.13-1.67Q46.13 0 44.37 0L44.37 0Q42.75 0 42.57-1.53L42.57-1.53L42.39-2.92L42.25-2.92Q38.02 0.58 34.16 0.58ZM35.33-2.70L35.33-2.70Q37.03-2.70 38.70-3.51L38.70-3.51Q40.14-4.27 42.03-5.94L42.03-5.94L42.03-12.78Q36.05-12.06 33.44-10.53L33.44-10.53Q31.00-9.09 31.00-6.61L31.00-6.61Q31.00-4.63 32.27-3.60L32.27-3.60Q33.39-2.70 35.33-2.70ZM68.17 0L52.47 0Q51.34 0 51.34-1.13L51.34-1.13L51.34-1.26Q51.34-2.21 51.88-2.97L51.88-2.97L64.22-21.11L54.40-21.11Q52.74-21.11 52.74-22.77Q52.74-24.43 54.40-24.43L54.40-24.43L68.27-24.43Q69.39-24.43 69.39-23.31L69.39-23.31L69.39-23.18Q69.39-22.23 68.85-21.46L68.85-21.46L56.52-3.33L68.17-3.33Q69.84-3.33 69.84-1.67Q69.84 0 68.17 0L68.17 0ZM75.64 10.53L75.64 10.53Q74.83 10.53 74.07 10.39L74.07 10.39Q72.81 10.04 73.13 8.55L73.13 8.55Q73.53 6.75 75.28 7.15L75.28 7.15Q75.38 7.15 75.42 7.15L75.42 7.15Q79.24 7.15 80.95 1.89L80.95 1.89L81.49 0.04L72.67-22.00Q71.68-24.43 74.29-24.43L74.29-24.43Q75.96-24.43 76.54-22.90L76.54-22.90L80.95-10.84Q81.04-10.53 81.27-9.95L81.27-9.95Q82.62-5.89 83.29-4.00L83.29-4.00L83.52-4.00Q83.79-4.95 84.38-6.88L84.38-6.88Q85.18-9.58 85.59-10.84L85.59-10.84L89.46-22.90Q89.95-24.43 91.53-24.43L91.53-24.43Q93.96-24.43 93.15-22.18L93.15-22.18L89.32-11.21L84.73 2.02Q83.29 6.03 81.36 8.10L81.36 8.10Q79.02 10.53 75.64 10.53Z"
                      transform="translate(-4.5, 32.985)"/>
            </g>
            <g transform="translate(91.85250091552734,0)"/>
        </g>
        <rect fill="#000" x="0" y="0" width="92.85250091552734" height="12.579999923706055"
              transform="translate(-2, 48.5099983215332)"/>
        <g fill-rule="" hollow-target="t-name" class="tp-slogan iconsvg-slogansvg"
           transform="translate(0,50.5099983215332)" fill="#fff">
            <rect x="0" height="1" y="3.7899999618530273" width="27.011250495910645"/>
            <rect height="1" y="3.7899999618530273" width="27.011250495910645" x="61.8412504196167"/>
            <g transform="translate(30.011250495910645,0)">
                <path d="M0.89-8.58L2.06-8.58L2.06-1.03L6.42-1.03L6.42 0L0.89 0L0.89-8.58ZM13.22 0L12.38-2.48L8.91-2.48L8.02 0L6.84 0L10.08-8.58L11.39-8.58L14.48 0L13.22 0ZM10.64-7.31L9.28-3.52L11.95-3.52L10.69-7.31L10.64-7.31ZM16.36-1.03L21.66-1.03L21.66 0L14.91 0L14.91-0.94L20.16-7.59L15.28-7.59L15.28-8.58L21.66-8.58L21.66-7.59L16.36-1.03ZM29.72-8.58L26.48-3.47L26.48 0L25.31 0L25.31-3.47L22.08-8.58L23.44-8.58L25.88-4.45L28.36-8.58L29.72-8.58Z"
                      transform="translate(-0.890625, 8.578125)"/>
            </g>
        </g>
    </mask>
</svg>
